<svg id="Ñëîé_1" data-name="Ñëîé 1" xmlns="http://www.w3.org/2000/svg" xmlns:xlink="http://www.w3.org/1999/xlink" viewBox="0 0 245.87 171.09"><defs><style>.cls-1,.cls-10,.cls-2,.cls-5{fill-rule:evenodd;}.cls-1{fill:url(#Áåçûìÿííûé_ãðàäèåíò_140);}.cls-2{fill:url(#Áåçûìÿííûé_ãðàäèåíò_145);}.cls-3{fill:url(#Áåçûìÿííûé_ãðàäèåíò_99);}.cls-4{fill:url(#Áåçûìÿííûé_ãðàäèåíò_92);}.cls-5{fill:url(#Áåçûìÿííûé_ãðàäèåíò_145-2);}.cls-6{fill:#00ebee;}.cls-7{fill:url(#Áåçûìÿííûé_ãðàäèåíò_129);}.cls-8{fill:url(#Áåçûìÿííûé_ãðàäèåíò_150);}.cls-9{fill:url(#Áåçûìÿííûé_ãðàäèåíò_105);}.cls-10{fill:url(#Áåçûìÿííûé_ãðàäèåíò_140-2);}.cls-11{fill:#028baa;}.cls-12{fill:url(#Áåçûìÿííûé_ãðàäèåíò_112);}</style><linearGradient id="Áåçûìÿííûé_ãðàäèåíò_140" x1="-54.38" y1="237.02" x2="93.07" y2="237.02" gradientTransform="matrix(-1, 0, 0, 1, 284.6, 0)" gradientUnits="userSpaceOnUse"><stop offset="0" stop-color="#00d7e0"/><stop offset="0.01" stop-color="#00d6df"/><stop offset="0.27" stop-color="#00b8cc"/><stop offset="0.53" stop-color="#00a2bd"/><stop offset="0.77" stop-color="#0094b5"/><stop offset="1" stop-color="#0090b2"/></linearGradient><linearGradient id="Áåçûìÿííûé_ãðàäèåíò_145" x1="-126.93" y1="212.65" x2="20.52" y2="212.65" gradientTransform="matrix(-1, 0, 0, 1, 284.6, 0)" gradientUnits="userSpaceOnUse"><stop offset="0" stop-color="#00ebee"/><stop offset="0.14" stop-color="#00e7ec"/><stop offset="0.45" stop-color="#00cedd"/><stop offset="1" stop-color="#0098bc"/></linearGradient><linearGradient id="Áåçûìÿííûé_ãðàäèåíò_99" x1="-139.03" y1="188.98" x2="93.68" y2="188.98" gradientTransform="matrix(-1, 0, 0, 1, 284.6, 0)" gradientUnits="userSpaceOnUse"><stop offset="0" stop-color="#00d7e0"/><stop offset="0.51" stop-color="#00d5df"/><stop offset="0.69" stop-color="#00cedc"/><stop offset="0.82" stop-color="#00c3d5"/><stop offset="0.92" stop-color="#00b2cd"/><stop offset="1" stop-color="#009fc3"/></linearGradient><linearGradient id="Áåçûìÿííûé_ãðàäèåíò_92" x1="-107.73" y1="188.98" x2="39.55" y2="188.98" gradientTransform="matrix(-1, 0, 0, 1, 284.6, 0)" gradientUnits="userSpaceOnUse"><stop offset="0" stop-color="#00ebee"/><stop offset="0.14" stop-color="#00e7ec"/><stop offset="0.47" stop-color="#00cede"/><stop offset="1" stop-color="#009fc3"/></linearGradient><linearGradient id="Áåçûìÿííûé_ãðàäèåíò_145-2" x1="-112.26" y1="-39.19" x2="35.19" y2="-39.19" gradientTransform="translate(299.05 222.08) rotate(180)" xlink:href="#Áåçûìÿííûé_ãðàäèåíò_145"/><linearGradient id="Áåçûìÿííûé_ãðàäèåíò_129" x1="329.7" y1="172.34" x2="351.49" y2="172.34" gradientTransform="translate(506.43 -171.48) rotate(88.91)" gradientUnits="userSpaceOnUse"><stop offset="0" stop-color="#00c8d6"/><stop offset="0.48" stop-color="#00d0e0"/><stop offset="1" stop-color="#00d4e5"/></linearGradient><linearGradient id="Áåçûìÿííûé_ãðàäèåíò_150" x1="543.03" y1="307.4" x2="745.35" y2="307.4" gradientTransform="translate(-357.93)" gradientUnits="userSpaceOnUse"><stop offset="0" stop-color="#0098be"/><stop offset="0.21" stop-color="#009bc0"/><stop offset="0.37" stop-color="#00a5c5"/><stop offset="0.48" stop-color="#00acc8"/><stop offset="0.65" stop-color="#00c0cf"/><stop offset="0.85" stop-color="#00e1db"/><stop offset="1" stop-color="#00ffe6"/></linearGradient><linearGradient id="Áåçûìÿííûé_ãðàäèåíò_105" x1="-39.24" y1="307.22" x2="19.65" y2="307.22" gradientTransform="matrix(-1, 0, 0, 1, 284.6, 0)" gradientUnits="userSpaceOnUse"><stop offset="0" stop-color="#00ccdf"/><stop offset="0.3" stop-color="#00c8dc"/><stop offset="0.6" stop-color="#00bcd5"/><stop offset="0.9" stop-color="#00a7c8"/><stop offset="1" stop-color="#009fc3"/></linearGradient><linearGradient id="Áåçûìÿííûé_ãðàäèåíò_140-2" x1="-53.43" y1="284.71" x2="94.03" y2="284.71" xlink:href="#Áåçûìÿííûé_ãðàäèåíò_140"/><linearGradient id="Áåçûìÿííûé_ãðàäèåíò_112" x1="72.5" y1="161.67" x2="91.34" y2="161.67" gradientUnits="userSpaceOnUse"><stop offset="0" stop-color="#00adce"/><stop offset="0.46" stop-color="#00b2ce"/><stop offset="0.98" stop-color="#00bfce"/><stop offset="1" stop-color="#00c0ce"/></linearGradient></defs><title>logo_brain</title><path class="cls-1" d="M243.05,230.19a17.17,17.17,0,0,1-5.19.79c-11.54,0-12.12-8-20.68-11.43a18.79,18.79,0,0,0-20.15,4.2,18.77,18.77,0,0,0,20.34,30.66c6.62-2.7,7.81-7.82,14.42-10.29a17.51,17.51,0,0,1,6.07-1.09A17.39,17.39,0,0,1,249,247c.55.45,1,.86,1.43,1.27s1.09,1,1.8,1.54a16.22,16.22,0,0,0,14.26,2.69c10.41-3,9.16-14.19,22.66-14.19,11.36,0,11.62,7.89,18.64,11.21a13.85,13.85,0,0,0,11.63.1c6.41-2.91,6.25-8.5,14.66-11.54a19.43,19.43,0,0,1,5-1.1,19.68,19.68,0,0,1-4.43-.9c-8.76-2.9-8.65-8.75-15.18-11.72a13.9,13.9,0,0,0-11.3-.06c-7.17,3.16-7.63,11.3-19,11.3-12.31,0-12.32-9.84-20.79-13.46a16.23,16.23,0,0,0-6.33-1.28,16,16,0,0,0-9.53,3.11,25.27,25.27,0,0,0-2.11,1.77,24,24,0,0,1-2.57,2.11,17.12,17.12,0,0,1-4.72,2.31ZM342.39,237a19,19,0,0,1,13.19,6.92,19.69,19.69,0,0,0,2.3,2.35,11.93,11.93,0,0,0,3.51,1.95,11.71,11.71,0,0,0,3.95.68,11.89,11.89,0,1,0-3.85-23.14,12.1,12.1,0,0,0-3.43,1.85,17.27,17.27,0,0,0-2.37,2.39,19.14,19.14,0,0,1-13.3,7Z" transform="translate(-178.13 -161.44)"/><path class="cls-2" d="M360,205.82a17.44,17.44,0,0,0,5.19.79c11.54,0,12.12-8.06,20.68-11.43a18.77,18.77,0,1,1-.2,34.85c-6.62-2.69-7.81-7.81-14.42-10.28a17.22,17.22,0,0,0-6.06-1.09,17.49,17.49,0,0,0-5.89,1,17.8,17.8,0,0,0-5.21,3c-.54.46-1,.87-1.43,1.27a22.74,22.74,0,0,1-1.79,1.54,16.24,16.24,0,0,1-4.63,2.47,16.06,16.06,0,0,1-5.17.85,16.34,16.34,0,0,1-4.46-.62c-10.42-3-9.17-14.19-22.67-14.19-11.35,0-11.62,7.89-18.64,11.21a13.9,13.9,0,0,1-11.63.09c-6.41-2.9-6.25-8.49-14.66-11.54a19.44,19.44,0,0,0-4.95-1.09,19.07,19.07,0,0,0,4.42-.91c8.77-2.89,8.65-8.75,15.19-11.71A13.88,13.88,0,0,1,295,200c7.18,3.15,7.64,11.29,19,11.29,12.32,0,12.33-9.83,20.8-13.45a16.14,16.14,0,0,1,11.34-.49,15.68,15.68,0,0,1,4.51,2.32,25.45,25.45,0,0,1,2.12,1.77,26.21,26.21,0,0,0,2.56,2.11,17.32,17.32,0,0,0,4.73,2.31Zm-99.35,6.82a19,19,0,0,0-13.18,6.91,18.36,18.36,0,0,1-2.31,2.35,11.89,11.89,0,1,1-7.46-21.14,11.65,11.65,0,0,1,3.85.64,11.49,11.49,0,0,1,3.43,1.85,16.73,16.73,0,0,1,2.37,2.39,19.22,19.22,0,0,0,13.3,7Z" transform="translate(-178.13 -161.44)"/><path class="cls-3" d="M355.08,182a17.27,17.27,0,0,1,2.37-2.39,11.78,11.78,0,0,1,7.28-2.48,11.89,11.89,0,0,1,0,23.77,11.76,11.76,0,0,1-7.46-2.63,19,19,0,0,1-2.31-2.35A18.9,18.9,0,0,0,341.78,189,19.21,19.21,0,0,0,355.08,182Z" transform="translate(-178.13 -161.44)"/><path class="cls-4" d="M245.06,189A16.12,16.12,0,0,1,260,172.91l.56,0c.21,0,.42,0,.64,0h.18a16.05,16.05,0,0,1,6.33,1.29c8.47,3.61,8.47,13.45,20.79,13.45,11.34,0,11.81-8.14,19-11.3a13.93,13.93,0,0,1,11.29.07c6.54,3,6.43,8.82,15.19,11.71a19.6,19.6,0,0,0,4.42.91,19.44,19.44,0,0,0-4.95,1.09c-8.41,3.05-8.25,8.63-14.66,11.54a13.9,13.9,0,0,1-11.63-.09c-7-3.32-7.28-11.22-18.64-11.22-8.11,0-10.89,4-14.08,7.91a16,16,0,0,1-3.39,3.54,14.06,14.06,0,0,1-5.19,2.74,16.07,16.07,0,0,1-4.46.63h-.18c-.25,0-.5,0-.75,0l-.48,0A16.11,16.11,0,0,1,245.06,189Z" transform="translate(-178.13 -161.44)"/><path class="cls-5" d="M359.79,268.1a17.61,17.61,0,0,0-4.73,2.31,24.84,24.84,0,0,0-2.56,2.11,23.92,23.92,0,0,1-2.12,1.77,15.68,15.68,0,0,1-4.51,2.32,16.29,16.29,0,0,1-11.34-.49c-8.47-3.62-8.48-13.46-20.8-13.46-11.34,0-11.8,8.14-19,11.3a13.88,13.88,0,0,1-11.29-.06c-6.54-3-6.42-8.83-15.19-11.72a19.59,19.59,0,0,0-4.42-.9,19.62,19.62,0,0,0,5-1.1c8.4-3,8.24-8.63,14.65-11.54a13.88,13.88,0,0,1,11.64.1c7,3.32,7.28,11.21,18.63,11.21,13.5,0,12.25-11.2,22.67-14.19a16.11,16.11,0,0,1,14.26,2.69c.71.55,1.24,1,1.79,1.54s.89.82,1.44,1.27a17.4,17.4,0,0,0,17.16,2.91c6.6-2.47,7.8-7.59,14.41-10.29A18.77,18.77,0,1,1,392.54,280a18.92,18.92,0,0,1-6.88-1.3c-8.56-3.38-9.14-11.44-20.68-11.44a17.13,17.13,0,0,0-5.19.8Zm-99.35-6.82a19.18,19.18,0,0,0-13.3,7,16.73,16.73,0,0,1-2.37,2.39,11.87,11.87,0,0,1-15.68-1,11.89,11.89,0,0,1,8.41-20.29A11.92,11.92,0,0,1,245,252a19.76,19.76,0,0,1,2.31,2.35,19,19,0,0,0,13.18,6.92Z" transform="translate(-178.13 -161.44)"/><circle class="cls-6" cx="414.58" cy="237.26" r="9.42" transform="translate(-179.32 -159.35) rotate(-0.29)"/><circle class="cls-7" cx="340.6" cy="172.34" r="10.9" transform="translate(-16.31 348.16) rotate(-88.91)"/><path class="cls-8" d="M244.7,301.31a14.46,14.46,0,0,0-2.06-2.08,10.22,10.22,0,0,0-3-1.61,10.49,10.49,0,0,0-3.34-.55,10.34,10.34,0,1,0,3.43,20.08,10.13,10.13,0,0,0,3.05-1.7,16.88,16.88,0,0,0,2-2,16.44,16.44,0,0,1,11.46-6A16.71,16.71,0,0,1,244.7,301.31Z" transform="translate(-178.13 -161.44)"/><path class="cls-9" d="M269.16,306.35c6.08-2,7.68-5.51,10.5-8.36l.15-.15a13,13,0,0,1,3.8-2.64l.29-.11.18-.07c.34-.14.68-.27,1-.38l.28-.08c.33-.09.65-.18,1-.25l.43-.07c.3-.05.59-.11.89-.14s.65,0,1-.05l.37,0h0a13.18,13.18,0,0,1,5.62,25.11h0a12,12,0,0,1-1.29.52l0,0a13.16,13.16,0,0,1-4.28.72,13.94,13.94,0,0,1-1.45-.08l-.14,0a11.17,11.17,0,0,1-1.18-.2,4.23,4.23,0,0,1-.51-.13c-.26-.06-.52-.13-.77-.21s-.44-.15-.65-.24l-.56-.21-.21-.09c-.23-.1-.44-.22-.66-.34l-.2-.1c-.36-.19-.7-.4-1-.61l0,0c-.3-.2-.57-.41-.84-.62a14.1,14.1,0,0,1-1.49-1.4l-.39-.43-.09-.1c-2.26-2.56-4-5.47-9.22-7.35a18.58,18.58,0,0,0-4.72-1A18.84,18.84,0,0,0,269.16,306.35Z" transform="translate(-178.13 -161.44)"/><path class="cls-10" d="M242.1,277.89a17.55,17.55,0,0,1-5.2.79c-11.54,0-12.12-8.06-20.68-11.43a18.77,18.77,0,1,0,.2,34.85c6.62-2.69,7.81-7.82,14.42-10.28a17.23,17.23,0,0,1,6.06-1.1,17.44,17.44,0,0,1,11.1,4c.54.46,1,.87,1.43,1.27a22.74,22.74,0,0,0,1.79,1.54,16.24,16.24,0,0,0,4.63,2.47,16.06,16.06,0,0,0,5.17.85,16.34,16.34,0,0,0,4.46-.62c10.42-3,9.17-14.2,22.67-14.2,11.36,0,11.62,7.9,18.64,11.22a13.9,13.9,0,0,0,11.63.09c6.41-2.9,6.25-8.49,14.66-11.54a19.44,19.44,0,0,1,4.95-1.09,19.07,19.07,0,0,1-4.42-.91c-8.77-2.89-8.65-8.75-15.19-11.71a13.88,13.88,0,0,0-11.29-.06c-7.17,3.15-7.64,11.29-19,11.29-12.32,0-12.33-9.83-20.8-13.45a16,16,0,0,0-6.33-1.29,16,16,0,0,0-9.52,3.11,27.62,27.62,0,0,0-2.12,1.78,27.73,27.73,0,0,1-2.56,2.11,17.41,17.41,0,0,1-4.72,2.31Zm99.34,6.82a18.92,18.92,0,0,1,13.18,6.91,19,19,0,0,0,2.31,2.35,11.81,11.81,0,0,0,3.5,2,12.06,12.06,0,0,0,4,.67,11.89,11.89,0,1,0-3.85-23.14,12,12,0,0,0-3.43,1.85,17.27,17.27,0,0,0-2.37,2.39,19.23,19.23,0,0,1-13.3,7Z" transform="translate(-178.13 -161.44)"/><circle class="cls-11" cx="9.42" cy="99.67" r="9.42"/><circle class="cls-12" cx="81.92" cy="161.67" r="9.42"/></svg>